HIERARCHY
ROOT Hips
{
  OFFSET -32.5998 29.0326 120.673
  CHANNELS 6 Xposition Yposition Zposition Zrotation Xrotation Yrotation
  JOINT LeftUpLeg
  {
    OFFSET 8.64259 1.95398 -2.38835
    CHANNELS 3 Zrotation Xrotation Yrotation
    JOINT LeftLeg
    {
      OFFSET 43.7702 0 0
      CHANNELS 3 Zrotation Xrotation Yrotation
      JOINT LeftFoot
      {
        OFFSET 40.6238 0 0
        CHANNELS 3 Zrotation Xrotation Yrotation
        JOINT LeftToeBase
        {
          OFFSET 12.7242 0 0
          CHANNELS 3 Zrotation Xrotation Yrotation
          End Site
          {
            OFFSET 0 0 0
          }
        }
      }
    }
  }
  JOINT RightUpLeg
  {
    OFFSET -8.2249 1.95398 -2.59336
    CHANNELS 3 Zrotation Xrotation Yrotation
    JOINT RightLeg
    {
      OFFSET 43.5653 0 0
      CHANNELS 3 Zrotation Xrotation Yrotation
      JOINT RightFoot
      {
        OFFSET 40.6238 0 0
        CHANNELS 3 Zrotation Xrotation Yrotation
        JOINT RightToeBase
        {
          OFFSET 12.7242 0 0
          CHANNELS 3 Zrotation Xrotation Yrotation
          End Site
          {
            OFFSET 0 0 0
          }
        }
      }
    }
  }
  JOINT Spine
  {
    OFFSET 0.165834 0.87714 6.61349
    CHANNELS 3 Zrotation Xrotation Yrotation
    JOINT Spine1
    {
      OFFSET 7.38963 1.71661e-005 0
      CHANNELS 3 Zrotation Xrotation Yrotation
      JOINT Spine2
      {
        OFFSET 11.9445 1.14441e-005 0
        CHANNELS 3 Zrotation Xrotation Yrotation
        JOINT Spine3
        {
          OFFSET 14.7254 4.19617e-005 0
          CHANNELS 3 Zrotation Xrotation Yrotation
          JOINT Spine4
          {
            OFFSET 10.9679 0 0
            CHANNELS 3 Zrotation Xrotation Yrotation
            JOINT RightShoulder
            {
              OFFSET 2.46616 -1.6653 3.69651
              CHANNELS 3 Zrotation Xrotation Yrotation
              JOINT RightArm
              {
                OFFSET 13.0012 0 0
                CHANNELS 3 Zrotation Xrotation Yrotation
                JOINT RightForeArm
                {
                  OFFSET 28.7848 1.62311e-005 0
                  CHANNELS 3 Zrotation Xrotation Yrotation
                  JOINT RightHand
                  {
                    OFFSET 26.5688 1.62095e-005 0
                    CHANNELS 3 Zrotation Xrotation Yrotation
                    End Site
                    {
                      OFFSET 0 0 0
                    }
                  }
                }
              }
            }
            JOINT LeftShoulder
            {
              OFFSET 2.38034 -1.29275 -3.7523
              CHANNELS 3 Zrotation Xrotation Yrotation
              JOINT LeftArm
              {
                OFFSET 16.3182 6.07031e-005 0
                CHANNELS 3 Zrotation Xrotation Yrotation
                JOINT LeftForeArm
                {
                  OFFSET 27.0901 0 0
                  CHANNELS 3 Zrotation Xrotation Yrotation
                  JOINT LeftHand
                  {
                    OFFSET 24.5451 1.51738e-005 0
                    CHANNELS 3 Zrotation Xrotation Yrotation
                    End Site
                    {
                      OFFSET 0 0 0
                    }
                  }
                }
              }
            }
            JOINT Neck
            {
              OFFSET 5.0226 -0.0266342 0
              CHANNELS 3 Zrotation Xrotation Yrotation
              JOINT Head
              {
                OFFSET 6.69364 2.86102e-005 0
                CHANNELS 3 Zrotation Xrotation Yrotation
                End Site
                {
                  OFFSET 0 0 0
                }
              }
            }
          }
        }
      }
    }
  }
}
MOTION
Frames:	17
Frame Time:	0.0416667
-374.612 95.4354 345.37 97.2555 28.0321 81.053 -166.615 -3.45628 93.4206 10.6792 52.0525 -20.4208 15.3833 -60.501 38.8915 100.964 15.8531 -33.9272 174.434 -4.20713 87.4194 -19.6273 -16.54 -5.57233 72.5592 -6.50609 -9.77211 25.9935 -1.54349 10.5151 8.84426 3.58792 -88.7917 20.1456 17.9402 -1.4301 8.60163 17.8593 -2.24455 -14.9342 17.5128 4.20509 5.07842 17.5128 4.20508 81.5932 64.0544 -36.993 83.5507 17.2229 79.5351 -163.823 40.4507 -145.783 -0.189053 -0.195071 -47.6267 -102.264 -30.4023 51.1443 -110.272 72.6358 79.9413 -8.16026 7.7373 -19.9849 -55.2208 4.10611 -12.8031 -51.6241 -11.345 -39.1316 -17.7021 -22.8071 -31.6365 
-374.714 95.4493 345.33 97.2354 28.0835 80.9269 -166.853 -3.56753 93.1447 9.82678 51.7714 -19.8999 13.9857 -60.0049 36.9247 101.156 16.2296 -32.6596 174.229 -4.27924 87.2839 -19.5295 -15.9227 -5.47813 73.6267 -7.7608 -11.6188 23.0585 -1.97858 15.629 8.87026 3.6687 -88.7743 19.9779 18.0069 -1.36915 8.43505 17.9286 -2.18694 -15.1071 17.5579 4.28483 4.90549 17.5579 4.28482 81.4201 63.1868 -35.3533 84.6981 16.7241 78.4755 -165.097 39.7496 -145.088 -0.125835 -0.220121 -47.7263 -102.354 -29.7952 50.617 -123.762 72.3018 92.1876 -14.711 4.23836 -24.3938 -71.2258 10.66 -19.1823 -51.1903 -11.5821 -39.1116 -17.2833 -22.8896 -31.8331 
-375.02 95.4167 345.239 97.1734 28.2534 80.6069 -167.877 -3.44051 92.031 5.78782 50.7182 -17.3048 12.9618 -58.4798 33.7294 101.239 17.0621 -29.8045 173.415 -4.55701 86.7116 -18.7782 -14.9887 -5.01827 76.0984 -11.5632 -17.1901 16.8166 -4.72001 29.9398 8.82457 3.89191 -88.7385 19.5013 17.9545 -1.17241 7.95793 17.8849 -1.98795 -15.5739 17.4492 4.45375 4.43877 17.4492 4.45374 81.2863 60.7657 -31.1776 88.6422 14.6694 74.3795 -168.003 37.773 -144.101 0.134225 -0.323752 -48.0485 -102.201 -28.7213 50.216 166.114 18.3569 157.156 2.1133 -70.9139 -15.5986 -101.143 11.2596 -15.1539 -49.9396 -11.9315 -38.8686 -15.725 -22.9522 -31.4337 
-375.484 95.2428 345.151 97.0649 28.5695 80.1885 -169.511 -2.85233 90.2273 -1.0879 48.464 -13.1655 13.7233 -55.6877 30.7288 100.805 18.1809 -25.7683 172.628 -5.01712 86.0235 -16.6794 -12.4809 -4.63049 78.6962 -17.5886 -25.3558 16.6351 -12.3143 54.4686 8.69264 4.23497 -88.7226 18.7684 17.7298 -0.923481 7.22209 17.6715 -1.72848 -16.2786 17.1614 4.61527 3.73408 17.1614 4.61527 82.6443 56.5203 -26.4402 93.8592 10.4475 68.3172 -172.551 35.293 -142.596 0.684923 -0.551669 -48.9352 -102.174 -27.7884 49.6681 -178.106 64.5863 144.24 -49.3049 9.83523 -54.3915 -96.0946 30.0056 -32.4115 -47.7565 -12.6043 -37.9799 -13.4306 -22.9297 -30.2596 
-376.026 95.1103 345.072 96.8979 29.0615 79.7732 -170.815 -2.45113 88.7776 -7.184 44.7786 -9.85453 16.1731 -51.2099 28.2683 99.1548 19.2694 -21.0272 172.063 -5.04772 84.8388 -14.2579 -8.99957 -4.35522 80.3294 -24.6191 -34.6909 33.3647 -16.4068 84.028 8.42029 4.67287 -88.7409 17.8313 17.2141 -0.649355 6.27785 17.1683 -1.42979 -17.1595 16.5896 4.70543 2.85312 16.5896 4.70542 86.4497 50.0473 -22.3111 98.5746 3.11763 61.0758 -178.563 33.2906 -140.631 1.58315 -0.956084 -50.8041 -101.938 -27.1778 49.6951 -170.145 71.6824 131.152 -44.9359 5.91784 -34.9867 -80.4796 38.7333 -51.3004 -44.4738 -13.4427 -36.2975 -10.4661 -22.6447 -27.6446 
-376.583 95.2375 345.022 96.6494 29.7578 79.4658 -172.292 -2.77825 87.2943 -11.4389 38.0404 -6.47362 19.1803 -45.6171 25.29 96.86 20.1657 -16.0163 171.714 -3.13998 82.8012 -15.1286 -3.83659 -3.87436 82.7567 -31.0462 -42.0325 57.596 -7.12973 101.619 9.81838 6.14752 -86.1501 14.2656 21.3202 4.70489 2.77422 21.5058 3.71802 -20.9036 18.892 11.1002 -0.890985 18.8919 11.1002 98.5615 32.5343 -6.90642 97.7665 0.839098 56.779 177.79 30.3924 -141.011 2.78238 -1.5625 -53.5903 -86.8535 12.4032 49.7627 31.6405 72.6283 -95.2264 -63.7298 32.7171 -16.968 -51.5549 38.2277 -78.7517 -24.7073 -21.9959 -68.5324 -7.43229 -28.741 -12.3107 
-377.069 95.8466 345.028 96.2839 30.684 79.3757 -173.759 -3.10305 86.1712 -14.2062 25.0129 -3.21391 23.0682 -38.7099 20.8158 95.6941 20.8577 -12.2164 172.015 0.122897 80.5073 -19.3681 3.16611 -3.497 86.8379 -35.0711 -45.4465 77.8426 3.919 102.722 9.06409 6.57088 -86.7615 13.5586 19.5439 3.96932 2.0381 19.6988 3.07158 -21.4724 17.425 9.82191 -1.45978 17.425 9.8219 106.584 23.1229 -7.52401 97.1749 -10.9392 45.1336 168.5 32.2729 -138.094 3.36082 -2.02264 -58.1872 -88.8493 6.98952 49.3503 16.2516 73.4594 -79.7238 -69.0453 41.1084 -14.5985 -38.2816 33.3647 -90.6239 -21.0283 -22.61 -59.5596 -4.6929 -25.613 -9.58683 
-377.483 96.2787 345.175 95.746 31.8607 79.6273 -174.771 0.12712 85.7907 -21.1635 -5.83579 -0.153027 28.6119 -29.7312 4.92445 97.9377 16.1231 -16.1746 173.205 4.61893 78.2793 -27.3295 12.5201 -3.29488 93.4549 -35.8877 -44.4604 93.5277 9.98808 96.0111 8.29789 7.04397 -87.2238 12.6357 17.8042 3.47005 1.08891 17.939 2.65771 -22.2575 15.9208 8.78441 -2.24482 15.9208 8.78439 114.091 13.0285 -9.48062 91.811 -19.8243 33.2378 159.059 36.39 -133.99 2.77413 -1.92769 -63.3575 -90.017 3.40499 50.4805 -15.6269 63.6658 -51.1763 -74.9604 79.8501 -7.72582 -32.6598 34.6662 -93.9214 -15.6525 -22.303 -51.2241 -2.31048 -22.3944 -6.35662 
-377.624 96.3092 345.365 95.2308 33.2439 80.0042 -175.718 3.21723 87.4137 -26.3009 -48.9179 4.3013 21.2648 -23.6385 -33.2095 67.414 13.5151 99.3769 174.857 8.93396 76.3439 -36.5017 22.8261 -3.26525 100.259 -33.515 -41.2241 104.797 11.8323 88.6438 7.41054 7.535 -87.7572 11.6901 15.79 2.82273 0.116326 15.8985 2.10735 -23.0632 14.199 7.5262 -3.05058 14.199 7.52619 119.2 3.84265 -13.6756 84.4224 -25.8574 21.4456 146.709 41.0434 -126.645 0.736037 -0.864454 -68.4728 -91.2128 -1.13724 52.3078 -33.9539 43.5504 -37.6761 111.131 48.5072 -179.879 -30.3188 33.0096 -99.2338 -9.46637 -21.1796 -41.1533 -0.734269 -18.9279 -3.53355 
-377.424 96.319 345.445 95.0517 34.6993 80.1519 -176.65 0.967475 88.2532 -15.1071 -71.236 14.764 8.34583 -15.2645 -59.5064 52.2946 -29.5997 103.144 176.285 11.3514 74.4944 -43.6672 32.228 -3.35041 104.609 -29.4706 -38.0087 112.373 11.6896 82.7077 6.33736 7.94518 -88.3208 10.9132 13.3933 2.07825 -0.688053 13.4715 1.47598 -23.6943 12.1412 6.06319 -3.68161 12.1412 6.06318 120.464 -2.76062 -21.2593 78.3986 -29.527 11.976 140.525 42.0705 -122.436 -2.87102 1.36308 -69.1467 -92.3065 -7.059 55.1943 -50.4819 2.8161 -31.6823 140.655 42.8021 179.602 -42.8383 40.6823 -94.1533 -4.57976 -17.8664 -29.649 0.73426 -14.9342 -2.66513 
-376.9 96.3712 345.52 94.9508 36.2847 80.5123 -176.751 -1.46471 89.1725 -2.95727 -75.472 22.7524 8.97797 -7.41482 -71.8588 54.1612 -19.2009 96.2974 177.045 12.3408 73.199 -48.959 39.8739 -2.96989 106.575 -25.6158 -35.5164 117.626 10.7671 78.0318 5.17318 8.24427 -88.871 10.3543 10.8226 1.30322 -1.27127 10.8693 0.819925 -24.1214 9.92592 4.52644 -4.10878 9.9259 4.52643 118.537 -6.98819 -32.0588 74.0787 -30.7979 4.29416 141.436 41.6171 -123.512 -7.14897 3.77098 -65.4899 -93.3937 -14.4502 58.3686 -42.9634 9.81229 -25.263 133.452 74.8982 -147.162 -38.2675 67.3603 -115.077 -0.779276 -13.5458 -17.6274 1.29808 -11.2085 -3.30435 
-375.966 96.3782 345.716 95.096 38.0025 80.9734 -176.104 -3.09864 90.8138 -0.567367 -74.518 20.8775 16.99 -0.868031 -81.016 57.5205 -15.5093 102.439 177.493 12.0589 73.2324 -52.4201 45.5945 -2.73574 105.947 -22.8855 -34.9249 121.604 9.28818 73.8691 4.02745 8.40111 -89.3802 10.0705 8.30805 0.53835 -1.57366 8.32364 0.16958 -24.3016 7.75985 3.02532 -4.28894 7.75985 3.02531 113.911 -8.69236 -46.6852 71.7246 -29.2822 -0.751519 149.315 38.0995 -128.939 -13.7913 6.71085 -59.2105 -94.254 -22.9908 61.8217 -23.7173 43.7344 -35.3191 0.234642 19.8114 -5.78145 -3.7045 -6.34177 -36.8436 0.532453 -8.61083 -6.20502 2.13087 -7.86039 -5.18032 
-374.655 96.0795 345.913 95.984 39.5799 80.8693 -175.14 -2.0284 92.6478 -13.2888 -63.9569 7.82519 40.1197 -0.0168273 -83.726 60.3341 -14.979 112.159 176.971 10.9781 73.4763 -55.5827 47.9029 -1.52843 104.417 -21.9704 -36.1352 124.394 7.72316 70.5386 3.0417 8.47556 -89.8599 9.93893 6.12594 -0.221461 -1.71761 6.11024 -0.491883 -24.3635 5.90825 1.6365 -4.35083 5.90825 1.6365 106.932 -5.9652 -66.4288 69.5855 -30.6365 -4.46822 163.939 26.1607 -139.154 -21.5416 9.21799 -52.3882 -93.865 -30.0654 66.0648 -21.8521 29.3731 -26.6862 8.75767 16.5983 -7.5412 -2.42383 -0.0893453 -6.97588 -1.17772 -4.56655 4.47411 3.05943 -5.48982 -7.0883 
-373.081 95.1562 346.197 96.164 40.9996 81.0843 -175.026 8.65359 92.855 -34.3909 -25.1226 2.37879 69.5014 -0.363622 -43.8576 57.8668 -0.477224 86.6025 176.822 10.4539 74.805 -58.1155 48.2574 -0.483321 102.581 -21.8635 -39.0271 125.857 6.14707 67.9476 2.21072 8.42282 -90.2823 10.0484 4.2771 -0.916737 -1.61591 4.2326 -1.10441 -24.2078 4.35446 0.413594 -4.19517 4.35448 0.413595 100.448 -0.174284 -89.0661 63.7257 -25.7411 -3.72901 162.5 26.0525 -136.499 -25.8187 9.92026 -47.6411 -92.3449 -36.0385 71.1548 -14.3531 22.3143 -14.6965 10.9856 7.24379 -14.0824 -4.42909 0.0175811 -8.168 -5.16287 -1.98346 14.8861 4.61573 -4.05492 -9.21656 
-370.783 95.2597 345.638 94.3659 42.6584 81.5314 -173.828 20.8145 87.7855 -48.8647 10.0462 -0.371893 71.1117 6.99771 0.690534 16.43 -12.6008 10.1512 176.179 8.69893 76.6867 -53.6091 47.215 -0.556692 100.707 -23.5808 -41.9837 125.033 6.20817 68.3264 1.71928 8.51268 -90.2464 9.86253 3.31515 -0.755774 -1.80448 3.27866 -0.901101 -24.3736 3.38884 0.276659 -4.361 3.38882 0.276649 97.9357 0.648663 -99.4791 54.3953 -16.9046 -2.87028 155.039 36.8331 -127.813 -27.0391 8.96942 -41.9356 -88.241 -33.0535 77.5633 -12.521 16.4603 -6.89929 13.0015 7.8281 -14.4276 2.10012 0.0157273 -1.36531 -2.20298 -0.737785 17.3465 0.520384 -3.07922 -6.86823 
-367.865 94.8019 343.589 91.2676 43.8658 82.296 -172.795 29.722 82.6592 -47.8805 12.0681 -2.71461 70.2215 6.62308 3.49337 19.9768 -3.73169 -0.100164 174.6 6.41289 77.8278 -45.9683 41.5701 -0.326189 98.3743 -27.0924 -46.3041 121.774 6.79271 70.4316 1.41076 8.49873 -90.063 9.88255 2.78324 -0.349792 -1.78551 2.76515 -0.472045 -24.3442 2.75962 0.503529 -4.33157 2.7596 0.503521 96.5298 -0.295187 -104.276 47.9343 -9.47229 -2.02045 151.054 44.008 -122.321 -28.9842 7.59403 -34.6567 -85.693 -30.0865 81.6223 -18.1263 15.5187 3.22886 13.9266 8.59617 -15.2865 3.37436 0.155007 0.556994 0.820517 -0.437137 16.8661 -3.70681 -2.90299 -2.86701 
-363.602 93.4456 340.152 89.3491 43.4904 84.0432 -173.048 33.9948 79.8139 -37.0951 10.6981 -4.41775 71.611 6.68208 -1.20835 21.3319 -7.1856 8.00288 172.829 -0.528314 80.9229 -32.2282 30.8657 -0.303032 91.6605 -32.3326 -52.9178 114.932 7.04527 74.04 1.16686 8.5587 -90.1467 9.76234 2.25966 -0.469906 -1.90676 2.23677 -0.568949 -24.4577 2.29635 0.231302 -4.44501 2.29636 0.231304 93.8856 -3.20681 -111.505 41.9346 -4.16495 -1.46647 150.584 47.5221 -123.264 -32.5349 7.29553 -30.318 -85.5482 -35.2493 82.9785 -25.385 12.4731 15.5832 15.0064 8.91775 -18.1471 3.44386 0.0852553 -0.910844 1.49489 0.347476 19.3061 -2.35737 -2.64298 -3.57916 
